<?xml version="1.0" encoding="UTF-8"?><svg xmlns="http://www.w3.org/2000/svg" xmlns:xlink="http://www.w3.org/1999/xlink" height="327.7" preserveAspectRatio="xMidYMid meet" version="1.0" viewBox="-3.7 0.0 422.5 327.7" width="422.5" zoomAndPan="magnify"><g id="change1_1"><path d="M184.8,242.2c-7.9,50.7-55.4,85.5-106.2,77.6c-47.9-7.5-81.5-50.2-78.5-97.6C-3.7,80.8,142,0,142,0 S81.5,54.4,56.3,142.6c15.5-6.7,33-9.3,51-6.5C158,144,192.7,191.5,184.8,242.2z M333.3,136.1c-17.9-2.8-35.4-0.2-51,6.5 C307.5,54.4,368.1,0,368.1,0S222.4,80.8,226.2,222.2c-3,47.4,30.6,90.2,78.5,97.6c50.7,7.9,98.3-26.8,106.2-77.6 C418.8,191.5,384,144,333.3,136.1z" fill="#FFF"/></g></svg>