<?xml version="1.0" encoding="UTF-8" standalone="no"?><svg xmlns="http://www.w3.org/2000/svg" xmlns:xlink="http://www.w3.org/1999/xlink" fill="#ffffff" height="46.9" preserveAspectRatio="xMidYMid meet" version="1" viewBox="0.0 0.0 195.5 46.9" width="195.5" zoomAndPan="magnify"><g id="change1_1"><path d="M195.14,2.23v-.64h-.32v-.32h-.32v-.32h-.32v-.32h-.32V.32h-.64v-.32H2.23V.32h-.64v.32h-.32v.32h-.32v.32h-.32v.32H.32v.64h-.32V44.64H.32v.64h.32v.32h.32v.32h.32v.32h.32v.32h.64v.32H193.22v-.32h.64v-.32h.32v-.32h.32v-.32h.32v-.32h.32v-.64h.32V2.23h-.32Z"/></g><g id="change2_1"><path d="M194.5,2.55v-.64h-.32v-.32h-.32v-.32h-.32v-.32h-.64v-.32H2.55v.32h-.64v.32h-.32v.32h-.32v.32h-.32v.64h-.32V44.32h.32v.64h.32v.32h.32v.32h.32v.32h.64v.32H192.91v-.32h.64v-.32h.32v-.32h.32v-.32h.32v-.64h.32V2.55h-.32Zm-.96,41.45h-.32v.32h-.32v.32h-.32v.32H2.87v-.32h-.32v-.32h-.32v-.32h-.32V2.87h.32v-.32h.32v-.32h.32v-.32H192.59v.32h.32v.32h.32v.32h.32V44Z" fill="#000000"/></g></svg>