<?xml version="1.0" encoding="UTF-8" standalone="no"?><svg xmlns="http://www.w3.org/2000/svg" xmlns:xlink="http://www.w3.org/1999/xlink" clip-rule="evenodd" fill="#ba7be7" fill-rule="evenodd" height="405.2" image-rendering="optimizeQuality" preserveAspectRatio="xMidYMid meet" shape-rendering="geometricPrecision" text-rendering="geometricPrecision" version="1" viewBox="52.5 53.1 512.0 405.2" width="512" zoomAndPan="magnify"><g fill-rule="nonzero" id="change1_1"><path d="M364.85 302.334l192.667 0c3.86589,0 7.00016,3.13427 7.00016,7.00016l0 93.5294c0,3.86589 -3.13427,7.00016 -7.00016,7.00016l-192.667 0c-3.86589,0 -7.00016,-3.13427 -7.00016,-7.00016l0 -93.5294c0,-3.86589 3.13427,-7.00016 7.00016,-7.00016zm185.666 14.0003l-178.666 0 0 79.5291 178.666 0 0 -79.5291z" fill="inherit"/><path d="M150.451 242.836c0,-3.86589 -3.13427,-7.00016 -7.00016,-7.00016 -3.86589,0 -7.00016,3.13427 -7.00016,7.00016l0 47.899c0,3.86589 3.13427,7.00016 7.00016,7.00016 3.86589,0 7.00016,-3.13427 7.00016,-7.00016l0 -47.899zm0 167.223c0,-3.86589 -3.13427,-7.00016 -7.00016,-7.00016 -3.86589,0 -7.00016,3.13427 -7.00016,7.00016l0 41.1508c0,3.86589 3.13427,7.00016 7.00016,7.00016l242.2 0c3.86589,0 7.00016,-3.13427 7.00016,-7.00016l0 -48.0209c0,-3.86589 -3.13427,-7.00016 -7.00016,-7.00016 -3.86589,0 -7.00016,3.13427 -7.00016,7.00016l0 41.0207 -228.2 0 0 -34.1507zm228.2 -100.724c0,3.86589 3.13427,7.00016 7.00016,7.00016 3.86589,0 7.00016,-3.13427 7.00016,-7.00016l0 -66.5385c0,-3.86589 -3.13427,-7.00016 -7.00016,-7.00016 -3.86589,0 -7.00016,3.13427 -7.00016,7.00016l0 66.5385z" fill="inherit"/><path d="M97.2936 237.389c-2.57584,2.88255 -2.32724,7.30828 0.555307,9.88413 1.49924,1.33994 3.41603,1.9148 5.27301,1.75323l41.1015 0.0257953c3.85087,0 6.97266,-3.1218 6.97266,-6.97266 0,-3.85087 -3.1218,-6.97266 -6.97266,-6.97266l-26.1386 -0.0164409 146.411 -163.839 146.481 163.802 -24.5534 0c-3.86589,0 -7.00016,3.13427 -7.00016,7.00016 0,3.86589 3.13427,7.00016 7.00016,7.00016l40.1658 0c3.86589,0 7.00016,-3.13427 7.00016,-7.00016 0,-2.01855 -0.854929,-3.83754 -2.22208,-5.11512l-161.664 -180.781 -0.118488 -0.129543c-2.8063,-2.97298 -7.53307,-2.95569 -10.3014,0.131528l-161.99 181.23z" fill="inherit"/><path d="M132.372 235.079c-3.86589,0 -7.00016,3.13427 -7.00016,7.00016 0,3.86589 3.13427,7.00016 7.00016,7.00016l254.051 0c3.86589,0 7.00016,-3.13427 7.00016,-7.00016 0,-3.86589 -3.13427,-7.00016 -7.00016,-7.00016l-254.051 0z" fill="inherit"/><path d="M195.343 265.753l57.7497 0c3.86589,0 7.00016,3.13427 7.00016,7.00016l0 63.2495c0,3.86589 -3.13427,7.00016 -7.00016,7.00016l-57.7497 0c-3.86589,0 -7.00016,-3.13427 -7.00016,-7.00016l0 -63.2495c0,-3.86589 3.13427,-7.00016 7.00016,-7.00016zm50.7495 14.0003l-43.7494 0 0 49.2491 43.7494 0 0 -49.2491z" fill="inherit"/><path d="M276.01 265.753l57.7497 0c3.86589,0 7.00016,3.13427 7.00016,7.00016l0 63.2495c0,3.86589 -3.13427,7.00016 -7.00016,7.00016l-57.7497 0c-3.86589,0 -7.00016,-3.13427 -7.00016,-7.00016l0 -63.2495c0,-3.86589 3.13427,-7.00016 7.00016,-7.00016zm50.7495 14.0003l-43.7494 0 0 49.2491 43.7494 0 0 -49.2491z" fill="inherit"/><path d="M195.343 351.92l57.7497 0c3.86589,0 7.00016,3.13427 7.00016,7.00016l0 63.2495c0,3.86589 -3.13427,7.00016 -7.00016,7.00016l-57.7497 0c-3.86589,0 -7.00016,-3.13427 -7.00016,-7.00016l0 -63.2495c0,-3.86589 3.13427,-7.00016 7.00016,-7.00016zm50.7495 14.0003l-43.7494 0 0 49.2491 43.7494 0 0 -49.2491z" fill="inherit"/><path d="M276.01 351.92l57.7497 0c3.86589,0 7.00016,3.13427 7.00016,7.00016l0 63.2495c0,3.86589 -3.13427,7.00016 -7.00016,7.00016l-57.7497 0c-3.86589,0 -7.00016,-3.13427 -7.00016,-7.00016l0 -63.2495c0,-3.86589 3.13427,-7.00016 7.00016,-7.00016zm50.7495 14.0003l-43.7494 0 0 49.2491 43.7494 0 0 -49.2491z" fill="inherit"/><path d="M59.5162 444.209c-3.86589,0 -7.00016,3.13427 -7.00016,7.00016 0,3.86589 3.13427,7.00016 7.00016,7.00016l410.07 0c3.86589,0 7.00016,-3.13427 7.00016,-7.00016 0,-3.86589 -3.13427,-7.00016 -7.00016,-7.00016l-410.07 0z" fill="inherit"/><path d="M143.447 416.349c-9.98731,0 -18.7863,-6.02192 -24.9375,-15.7572 -5.54655,-8.7772 -8.97704,-20.7507 -8.97704,-33.8377 0,-18.1457 12.8137,-46.7022 21.9311,-67.0215 0.488693,-1.08907 5.57065,-12.4387 5.52983,-12.6184 1.49159,-3.56655 5.59219,-5.24863 9.15874,-3.75704 1.9046,0.796536 3.27146,2.33745 3.90501,4.14312 1.57833,3.75704 3.38372,7.7828 5.37987,12.2329 9.11395,20.3204 21.9243,48.8815 21.9243,67.021 0,13.0873 -3.43077,25.0605 -8.97676,33.8377 -6.15118,9.73531 -14.9502,15.7572 -24.9375,15.7572zm-13.125 -23.1948c3.58923,5.68035 8.24825,9.19446 13.125,9.19446 4.87701,0 9.53575,-3.51411 13.125,-9.19446 4.19443,-6.63789 6.78898,-15.963 6.78898,-26.4002 0,-14.8147 -11.3854,-40.6284 -19.9108,-59.6492 -8.52888,19.0199 -19.9174,44.8299 -19.9174,59.6492 0,10.4369 2.59455,19.762 6.78926,26.4002z" fill="inherit"/><path d="M264.551 129.086c6.17046,0 11.7581,2.50214 15.8026,6.54633 4.04419,4.04447 6.54633,9.63184 6.54633,15.8023 0,6.17046 -2.50214,11.7575 -6.54633,15.8023 -4.04447,4.04419 -9.63213,6.54633 -15.8026,6.54633 -6.17046,0 -11.7578,-2.50158 -15.802,-6.54633 -4.04447,-4.04419 -6.54633,-9.63184 -6.54633,-15.8023 0,-6.17074 2.50186,-11.7581 6.54633,-15.8023 4.04419,-4.04476 9.63156,-6.54633 15.802,-6.54633zm5.904 16.4449c-1.5103,-1.51002 -3.59802,-2.4446 -5.904,-2.4446 -2.3057,0 -4.39342,0.934299 -5.90343,2.4446 -1.5103,1.51002 -2.4446,3.59802 -2.4446,5.90372 0,2.30598 0.934299,4.3937 2.4446,5.90372 1.51002,1.5103 3.59773,2.4446 5.90343,2.4446 2.30598,0 4.3937,-0.934583 5.904,-2.4446 1.51002,-1.5103 2.4446,-3.59773 2.4446,-5.90372 0,-2.30598 -0.934583,-4.39342 -2.4446,-5.90372z" fill="inherit"/><path d="M417.656 378.552c-1.2532,3.65443 0.693354,7.63342 4.34778,8.88662 3.65443,1.2532 7.63342,-0.693354 8.88662,-4.34778l10.4873 -30.5257 10.9803 30.6196c1.29855,3.62409 5.29002,5.50942 8.91411,4.21087 3.62409,-1.29855 5.50942,-5.29002 4.21087,-8.91411l-17.4818 -48.7502c-0.570331,-2.19685 -2.19572,-4.07537 -4.50284,-4.86794 -3.65613,-1.25603 -7.6388,0.689669 -8.89484,4.3458l-16.9475 49.343z" fill="inherit"/><path d="M432.291 353.656c-3.82054,-0.558709 -7.37093,2.08573 -7.92964,5.90627 -0.558709,3.82054 2.08573,7.37093 5.90627,7.92964 1.30507,0.191622 21.2953,0.0549921 21.3525,0.0547087 3.85087,-0.0150236 6.96047,-3.14901 6.94545,-6.99987 -0.0150236,-3.85087 -3.14901,-6.96047 -6.99987,-6.94545 -0.0535748,0 -18.93,0.105165 -19.2747,0.0547087z" fill="inherit"/><path d="M523.991 331.56c0,-3.86589 -3.13427,-7.00016 -7.00016,-7.00016 -3.86589,0 -7.00016,3.13427 -7.00016,7.00016l0 49.127c0,3.86589 3.13427,7.00016 7.00016,7.00016 3.86589,0 7.00016,-3.13427 7.00016,-7.00016l0 -49.127z" fill="inherit"/><path d="M516.996 324.35c-3.86589,0 -7.00016,3.13427 -7.00016,7.00016 0,3.86589 3.13427,7.00016 7.00016,7.00016l23.525 0c3.86589,0 7.00016,-3.13427 7.00016,-7.00016 0,-3.86589 -3.13427,-7.00016 -7.00016,-7.00016l-23.525 0z" fill="inherit"/><path d="M516.991 349.124c-3.86589,0 -7.00016,3.13427 -7.00016,7.00016 0,3.86589 3.13427,7.00016 7.00016,7.00016l23.525 0c3.86589,0 7.00016,-3.13427 7.00016,-7.00016 0,-3.86589 -3.13427,-7.00016 -7.00016,-7.00016l-23.525 0z" fill="inherit"/><path d="M516.991 373.687c-3.86589,0 -7.00016,3.13427 -7.00016,7.00016 0,3.86589 3.13427,7.00016 7.00016,7.00016l23.525 0c3.86589,0 7.00016,-3.13427 7.00016,-7.00016 0,-3.86589 -3.13427,-7.00016 -7.00016,-7.00016l-23.525 0z" fill="inherit"/><path d="M405.363 343.886c0,3.86589 3.13427,7.00016 7.00016,7.00016 3.86589,0 7.00016,-3.13427 7.00016,-7.00016 0,-5.60636 -2.71106,-10.5877 -7.09455,-14.1086 -3.95972,-3.18104 -9.32797,-5.14885 -15.1648,-5.14885 -5.83654,0 -11.2051,1.96781 -15.1648,5.14885 -4.3835,3.52091 -7.09455,8.50224 -7.09455,14.1086 0,5.60665 2.71134,10.588 7.09455,14.1086 3.95972,3.18104 9.32825,5.14885 15.1648,5.14885 2.59058,0 4.85263,0.77641 6.4148,2.03131 1.13924,0.915307 1.84422,2.06306 1.84422,3.22611 0,1.16306 -0.704976,2.3108 -1.84422,3.22611 -1.56217,1.2549 -3.82422,2.03131 -6.4148,2.03131 -2.59058,0 -4.85263,-0.77641 -6.4148,-2.03131 -1.13924,-0.915307 -1.84422,-2.06306 -1.84422,-3.22611 0,-3.86589 -3.13427,-7.00016 -7.00016,-7.00016 -3.86589,0 -7.00016,3.13427 -7.00016,7.00016 0,5.60665 2.71134,10.5877 7.09455,14.1089 3.95972,3.18104 9.32825,5.14885 15.1648,5.14885 5.83682,0 11.2051,-1.96781 15.1648,-5.14885 4.38321,-3.5212 7.09455,-8.50224 7.09455,-14.1089 0,-5.60665 -2.71134,-10.5877 -7.09455,-14.1089 -3.95972,-3.18104 -9.32797,-5.14885 -15.1648,-5.14885 -2.59058,0 -4.85263,-0.77641 -6.4148,-2.03131 -1.13924,-0.915024 -1.84422,-2.06306 -1.84422,-3.22583 0,-1.16306 0.704976,-2.3108 1.84422,-3.22583 1.56217,-1.2549 3.82422,-2.03131 6.4148,-2.03131 2.59058,0 4.85263,0.77641 6.4148,2.03131 1.13924,0.915024 1.84422,2.06277 1.84422,3.22583z" fill="inherit"/><path d="M481.878 331.455c0,-3.86589 -3.13427,-7.00016 -7.00016,-7.00016 -3.86589,0 -7.00016,3.13427 -7.00016,7.00016l0 49.3934c0,3.86589 3.13427,7.00016 7.00016,7.00016l24.3729 0c3.86589,0 7.00016,-3.13427 7.00016,-7.00016 0,-3.86589 -3.13427,-7.00016 -7.00016,-7.00016l-17.3727 0 0 -42.3933z" fill="inherit"/></g></svg>