<?xml version="1.0" encoding="UTF-8" standalone="no"?><svg xmlns="http://www.w3.org/2000/svg" xmlns:xlink="http://www.w3.org/1999/xlink" fill="none" height="21" preserveAspectRatio="xMidYMid meet" style="fill: none" version="1" viewBox="1.5 1.5 20.5 21.0" width="20.5" zoomAndPan="magnify"><g id="change1_1"><path clip-rule="evenodd" d="M11.1695 14.6556C10.9873 14.3824 10.6238 14.2983 10.3402 14.4637L5.5 17.2872V21H15.819L20.4496 17.1411C20.8844 16.7788 20.9142 16.1213 20.5141 15.7211C20.1838 15.3909 19.6642 15.3454 19.2815 15.6132L15.2867 18.4096C15.2027 18.4684 15.1026 18.5 15 18.5H10C9.8156 18.5 9.64617 18.3985 9.55916 18.2359C9.47215 18.0733 9.48169 17.8761 9.58397 17.7226L11.1695 15.3443C11.3085 15.1358 11.3085 14.8642 11.1695 14.6556ZM9.83628 13.6C10.5769 13.1679 11.5259 13.3875 12.0016 14.1009C12.3645 14.6454 12.3645 15.3546 12.0016 15.899L10.9343 17.5H14.8424L18.7081 14.794C19.4882 14.2479 20.5478 14.3407 21.2212 15.014C22.0372 15.83 21.9763 17.1706 21.0898 17.9093L16.3201 21.8841C16.2302 21.959 16.117 22 16 22H5C4.72386 22 4.5 21.7761 4.5 21.5V17C4.5 16.8222 4.59446 16.6577 4.74806 16.5681L9.83628 13.6Z" fill="#ba7be7" fill-rule="evenodd"/></g><g id="change1_2"><path clip-rule="evenodd" d="M1.5 15.5C1.5 15.2239 1.72386 15 2 15H5C5.27614 15 5.5 15.2239 5.5 15.5V22C5.5 22.2761 5.27614 22.5 5 22.5H2C1.72386 22.5 1.5 22.2761 1.5 22V15.5ZM2.5 16V21.5H4.5V16H2.5Z" fill="#ba7be7" fill-rule="evenodd"/></g><g id="change1_3"><path clip-rule="evenodd" d="M11.9999 3.5C12.1648 3.5 12.3191 3.58131 12.4123 3.71734L13.3698 5.11445L14.9944 5.59335C15.1526 5.63998 15.2776 5.7616 15.3286 5.91844C15.3796 6.07528 15.3499 6.24715 15.2493 6.37785L14.2165 7.72022L14.2631 9.4133C14.2676 9.57815 14.1906 9.73463 14.0572 9.83156C13.9237 9.92849 13.7511 9.9534 13.5957 9.89815L11.9999 9.33067L10.4041 9.89815C10.2487 9.9534 10.0761 9.92849 9.94265 9.83156C9.80924 9.73463 9.7322 9.57815 9.73674 9.4133L9.7833 7.72022L8.75046 6.37785C8.6499 6.24715 8.62025 6.07528 8.67121 5.91844C8.72216 5.7616 8.84718 5.63998 9.00536 5.59335L10.63 5.11445L11.5875 3.71734C11.6807 3.58131 11.835 3.5 11.9999 3.5ZM11.9999 4.88445L11.3543 5.82643C11.2893 5.9213 11.1936 5.99085 11.0833 6.02337L9.9879 6.34626L10.6843 7.25133C10.7544 7.34248 10.791 7.45501 10.7878 7.56998L10.7564 8.71151L11.8324 8.3289C11.9407 8.29037 12.0591 8.29037 12.1674 8.3289L13.2434 8.71151L13.212 7.56998C13.2088 7.45501 13.2454 7.34248 13.3155 7.25133L14.0119 6.34626L12.9165 6.02337C12.8062 5.99085 12.7105 5.9213 12.6455 5.82643L11.9999 4.88445Z" fill="#ba7be7" fill-rule="evenodd"/></g><g id="change1_4"><path clip-rule="evenodd" d="M6.5 2C6.5 1.72386 6.72386 1.5 7 1.5H17C17.2761 1.5 17.5 1.72386 17.5 2V11.5C17.5 11.7761 17.2761 12 17 12H7C6.72386 12 6.5 11.7761 6.5 11.5V2ZM7.5 2.5V11H16.5V2.5H7.5Z" fill="#ba7be7" fill-rule="evenodd"/></g></svg>