<?xml version="1.0" encoding="UTF-8" standalone="no"?><svg xmlns="http://www.w3.org/2000/svg" xmlns:xlink="http://www.w3.org/1999/xlink" fill="#ffffff" height="284.6" preserveAspectRatio="xMidYMid meet" version="1" viewBox="111.6 111.8 284.9 284.6" width="284.9" zoomAndPan="magnify"><g id="change1_1"><path d="M396.4,391.1l-1.9-32.2c-0.1-1.2-0.6-2.4-1.5-3.2l-7.7-7.7v-27.7c0-2.8-2.2-5-5-5h-21.3v-21.3c0-2.8-2.2-5-5-5h-21.3v-21.3 c0-2.8-2.2-5-5-5h-21.3v-21.3c0-2.8-2.2-5-5-5h-27.7L259.3,222l5.8-5.8c2-2,2-5.1,0-7.1l-4.3-4.3c6-25.4-1.5-52.4-20.1-70.9 c-14.3-14.3-33.3-22.1-53.5-22.1c0,0,0,0,0,0c-20.2,0-39.2,7.9-53.5,22.1c-14.3,14.3-22.1,33.3-22.1,53.5s7.9,39.2,22.1,53.5 c18.6,18.6,45.5,26.1,70.9,20.1l4.3,4.3c0.9,0.9,2.2,1.5,3.5,1.5s2.6-0.5,3.5-1.5l5.8-5.8L355.7,393c0.9,0.9,2,1.4,3.2,1.5 l32.2,1.9c0.1,0,0.2,0,0.3,0c1.3,0,2.6-0.5,3.5-1.5C395.9,393.9,396.5,392.5,396.4,391.1z M361.4,384.6L225.5,248.7 c-0.9-0.9-2.2-1.5-3.5-1.5s-2.6,0.5-3.5,1.5l-5.8,5.8l-2.8-2.8c-1.3-1.3-3.1-1.8-4.9-1.3c-22.8,6.4-47.3-0.1-64-16.8 c-12.4-12.4-19.2-28.9-19.2-46.4s6.8-34,19.2-46.4s28.9-19.2,46.4-19.2c17.5,0,34,6.8,46.4,19.2c16.7,16.7,23.1,41.2,16.8,64 c-0.5,1.7,0,3.6,1.3,4.9l2.8,2.8l-5.8,5.8c-2,2-2,5.1,0,7.1l19.3,19.3c0.9,0.9,2.2,1.5,3.5,1.5h24.8v21.3c0,2.8,2.2,5,5,5h21.3 v21.3c0,2.8,2.2,5,5,5h21.3v21.3c0,2.8,2.2,5,5,5h21.3V350c0,1.3,0.5,2.6,1.5,3.5l7.8,7.8l1.5,24.7L361.4,384.6z" fill="inherit"/><path d="M150.2,150.2c-9.2,9.2-9.2,24.3,0,33.5c4.6,4.6,10.7,6.9,16.8,6.9c6.1,0,12.1-2.3,16.8-6.9c0,0,0,0,0,0 c9.2-9.2,9.2-24.3,0-33.5C174.5,141,159.5,141,150.2,150.2z M176.7,176.7L176.7,176.7c-5.3,5.3-14,5.3-19.4,0 c-5.3-5.3-5.3-14,0-19.4c2.7-2.7,6.2-4,9.7-4c3.5,0,7,1.3,9.7,4C182,162.7,182,171.3,176.7,176.7z" fill="inherit"/><path d="M251.9,244.9c-2-2-5.1-2-7.1,0c-2,2-2,5.1,0,7.1l117.4,117.4c1,1,2.3,1.5,3.5,1.5s2.6-0.5,3.5-1.5c2-2,2-5.1,0-7.1 L251.9,244.9z" fill="inherit"/></g></svg>