<?xml version="1.0" encoding="UTF-8" standalone="no"?><svg xmlns="http://www.w3.org/2000/svg" xmlns:xlink="http://www.w3.org/1999/xlink" fill="#ba7be7" height="452" preserveAspectRatio="xMidYMid meet" version="1" viewBox="0.0 0.0 501.1 452.0" width="501.1" zoomAndPan="magnify"><defs><clipPath id="a"><path d="M 344 264 L 480 264 L 480 451.980469 L 344 451.980469 Z M 344 264"/></clipPath></defs><g><g clip-path="url(#a)" id="change1_1"><path d="M 470.871094 264.417969 C 465.53125 263.648438 460.578125 267.351562 459.808594 272.691406 C 450.101562 339.976562 408.800781 400.164062 349.328125 433.699219 C 344.625 436.351562 342.964844 442.308594 345.613281 447.007812 C 347.410156 450.191406 350.722656 451.980469 354.132812 451.980469 C 355.757812 451.980469 357.40625 451.574219 358.921875 450.71875 C 390.503906 432.910156 418.136719 407.726562 438.828125 377.890625 C 459.929688 347.464844 473.871094 312.050781 479.144531 275.484375 C 479.914062 270.144531 476.210938 265.191406 470.871094 264.417969" fill="inherit"/></g><g id="change1_2"><path d="M 19.539062 240.816406 C 19.539062 118.804688 118.800781 19.542969 240.8125 19.542969 C 269.761719 19.542969 297.90625 25.046875 324.460938 35.898438 C 329.453125 37.9375 335.160156 35.542969 337.199219 30.550781 C 339.238281 25.554688 336.847656 19.851562 331.851562 17.808594 C 302.9375 5.996094 272.308594 0.00390625 240.8125 0.00390625 C 176.488281 0.00390625 116.015625 25.054688 70.53125 70.535156 C 25.046875 116.019531 0 176.492188 0 240.816406 C 0 293.410156 16.652344 343.378906 48.15625 385.316406 C 50.074219 387.871094 53.007812 389.21875 55.972656 389.21875 C 58.015625 389.21875 60.074219 388.582031 61.835938 387.261719 C 66.148438 384.019531 67.019531 377.894531 63.777344 373.582031 C 34.835938 335.054688 19.539062 289.144531 19.539062 240.816406" fill="inherit"/></g><g id="change1_3"><path d="M 210.488281 372.992188 C 255.046875 372.992188 293.125 398.246094 307.492188 437.394531 C 308.945312 441.351562 312.683594 443.777344 316.664062 443.777344 C 317.78125 443.777344 318.921875 443.574219 320.03125 443.167969 C 325.097656 441.308594 327.695312 435.503906 325.835938 430.4375 C 308.613281 383.507812 263.335938 352.992188 210.488281 352.992188 L 169.003906 352.992188 C 129.15625 352.992188 93.542969 368.796875 71.289062 396.027344 C 67.875 400.207031 68.492188 406.453125 72.671875 409.867188 C 76.851562 413.285156 83.003906 412.753906 86.417969 408.578125 C 104.945312 385.902344 135.046875 372.992188 169.003906 372.992188 L 210.488281 372.992188" fill="inherit"/></g><g id="change1_4"><path d="M 189.746094 314.246094 C 162.285156 314.246094 139.945312 291.902344 139.945312 264.441406 C 139.945312 236.980469 162.285156 214.636719 189.746094 214.636719 C 217.210938 214.636719 239.550781 236.980469 239.550781 264.441406 C 239.550781 291.902344 217.210938 314.246094 189.746094 314.246094 Z M 189.746094 195.097656 C 151.511719 195.097656 120.40625 226.207031 120.40625 264.441406 C 120.40625 302.679688 151.511719 333.785156 189.746094 333.785156 C 227.984375 333.785156 259.089844 302.679688 259.089844 264.441406 C 259.089844 226.207031 227.984375 195.097656 189.746094 195.097656" fill="inherit"/></g><g id="change1_5"><path d="M 374 217.160156 L 374 171.992188 L 410 171.992188 L 410 217.992188 L 374 217.992188 Z M 470.5 124.292969 C 465.105469 124.292969 461 128.667969 461 134.0625 L 461 217.992188 L 429 217.992188 L 429 162.289062 C 429 156.894531 425.285156 151.992188 419.890625 151.992188 L 363.652344 151.992188 C 358.257812 151.992188 354 156.894531 354 162.289062 L 354 217.992188 L 323 217.992188 L 323 134.0625 C 323 128.667969 318.394531 124.292969 313 124.292969 C 307.605469 124.292969 303 128.667969 303 134.0625 L 303 226.929688 C 303 232.324219 307.792969 236.992188 313.1875 236.992188 L 470.355469 236.992188 C 475.753906 236.992188 480 232.324219 480 226.929688 L 480 134.0625 C 480 128.667969 475.894531 124.292969 470.5 124.292969" fill="inherit"/></g><g id="change1_6"><path d="M 496.722656 103.546875 L 409.308594 25.835938 C 399.074219 16.546875 383.671875 16.5625 373.453125 25.886719 C 373.398438 25.9375 373.34375 25.988281 373.289062 26.039062 L 286.566406 108.863281 C 282.664062 112.589844 282.523438 118.773438 286.25 122.675781 C 288.167969 124.683594 290.738281 125.695312 293.3125 125.695312 C 295.738281 125.695312 298.167969 124.800781 300.058594 122.992188 L 386.6875 40.261719 C 389.417969 37.828125 393.488281 37.851562 396.195312 40.320312 C 396.226562 40.347656 396.257812 40.378906 396.289062 40.402344 L 483.738281 118.148438 C 487.773438 121.734375 493.945312 121.371094 497.53125 117.339844 C 501.117188 113.308594 500.753906 107.132812 496.722656 103.546875" fill="inherit"/></g></g></svg>